<mxfile host="Electron" agent="Mozilla/5.0 (Macintosh; Intel Mac OS X 10_15_7) AppleWebKit/537.36 (KHTML, like Gecko) draw.io/24.7.17 Chrome/128.0.6613.36 Electron/32.0.1 Safari/537.36" version="24.7.17">
  <diagram id="R2lEEEUBdFMjLlhIrx00" name="Page-1">
    <mxGraphModel dx="1430" dy="837" grid="1" gridSize="10" guides="1" tooltips="1" connect="1" arrows="1" fold="1" page="1" pageScale="1" pageWidth="1169" pageHeight="827" math="0" shadow="0" extFonts="Permanent Marker^https://fonts.googleapis.com/css?family=Permanent+Marker">
      <root>
        <mxCell id="0" />
        <mxCell id="1" parent="0" />
        <mxCell id="3BoCwt5KpNZVM9zIBBHS-1" value="学生" style="rounded=0;whiteSpace=wrap;html=1;fontFamily=宋体-简;" parent="1" vertex="1">
          <mxGeometry x="90" y="260" width="120" height="40" as="geometry" />
        </mxCell>
        <mxCell id="3BoCwt5KpNZVM9zIBBHS-3" value="学号" style="ellipse;whiteSpace=wrap;html=1;fontStyle=4;fontFamily=宋体-简;" parent="1" vertex="1">
          <mxGeometry x="40" y="220" width="40" height="30" as="geometry" />
        </mxCell>
        <mxCell id="3BoCwt5KpNZVM9zIBBHS-5" value="姓名" style="ellipse;whiteSpace=wrap;html=1;fontFamily=宋体-简;" parent="1" vertex="1">
          <mxGeometry x="90" y="220" width="40" height="30" as="geometry" />
        </mxCell>
        <mxCell id="3BoCwt5KpNZVM9zIBBHS-7" value="性别" style="ellipse;whiteSpace=wrap;html=1;fontFamily=宋体-简;" parent="1" vertex="1">
          <mxGeometry x="140" y="220" width="40" height="30" as="geometry" />
        </mxCell>
        <mxCell id="3BoCwt5KpNZVM9zIBBHS-8" value="" style="endArrow=none;html=1;rounded=0;entryX=0.5;entryY=1;entryDx=0;entryDy=0;exitX=0.2;exitY=0;exitDx=0;exitDy=0;exitPerimeter=0;fontFamily=宋体-简;" parent="1" source="3BoCwt5KpNZVM9zIBBHS-1" target="3BoCwt5KpNZVM9zIBBHS-3" edge="1">
          <mxGeometry width="50" height="50" relative="1" as="geometry">
            <mxPoint x="184" y="298.39" as="sourcePoint" />
            <mxPoint x="234" y="248.39" as="targetPoint" />
          </mxGeometry>
        </mxCell>
        <mxCell id="3BoCwt5KpNZVM9zIBBHS-10" value="" style="endArrow=none;html=1;rounded=0;entryX=0.5;entryY=1;entryDx=0;entryDy=0;exitX=0.4;exitY=0;exitDx=0;exitDy=0;exitPerimeter=0;fontFamily=宋体-简;" parent="1" source="3BoCwt5KpNZVM9zIBBHS-1" target="3BoCwt5KpNZVM9zIBBHS-5" edge="1">
          <mxGeometry width="50" height="50" relative="1" as="geometry">
            <mxPoint x="154" y="298.39" as="sourcePoint" />
            <mxPoint x="204" y="248.39" as="targetPoint" />
          </mxGeometry>
        </mxCell>
        <mxCell id="3BoCwt5KpNZVM9zIBBHS-11" value="" style="endArrow=none;html=1;rounded=0;entryX=0.5;entryY=1;entryDx=0;entryDy=0;exitX=0.6;exitY=0;exitDx=0;exitDy=0;exitPerimeter=0;fontFamily=宋体-简;" parent="1" source="3BoCwt5KpNZVM9zIBBHS-1" target="3BoCwt5KpNZVM9zIBBHS-7" edge="1">
          <mxGeometry width="50" height="50" relative="1" as="geometry">
            <mxPoint x="184" y="298.39" as="sourcePoint" />
            <mxPoint x="234" y="248.39" as="targetPoint" />
          </mxGeometry>
        </mxCell>
        <mxCell id="3BoCwt5KpNZVM9zIBBHS-12" value="联系方式" style="ellipse;whiteSpace=wrap;html=1;fontFamily=宋体-简;" parent="1" vertex="1">
          <mxGeometry x="190" y="220" width="70" height="30" as="geometry" />
        </mxCell>
        <mxCell id="3BoCwt5KpNZVM9zIBBHS-13" value="" style="endArrow=none;html=1;rounded=0;entryX=0.5;entryY=1;entryDx=0;entryDy=0;exitX=0.8;exitY=0;exitDx=0;exitDy=0;exitPerimeter=0;fontFamily=宋体-简;" parent="1" source="3BoCwt5KpNZVM9zIBBHS-1" target="3BoCwt5KpNZVM9zIBBHS-12" edge="1">
          <mxGeometry width="50" height="50" relative="1" as="geometry">
            <mxPoint x="184" y="298.39" as="sourcePoint" />
            <mxPoint x="234" y="248.39" as="targetPoint" />
          </mxGeometry>
        </mxCell>
        <mxCell id="3BoCwt5KpNZVM9zIBBHS-14" value="班级" style="rounded=0;whiteSpace=wrap;html=1;fontFamily=宋体-简;" parent="1" vertex="1">
          <mxGeometry x="170" y="460" width="120" height="40" as="geometry" />
        </mxCell>
        <mxCell id="3BoCwt5KpNZVM9zIBBHS-15" value="院系" style="rounded=0;whiteSpace=wrap;html=1;fontFamily=宋体-简;" parent="1" vertex="1">
          <mxGeometry x="730" y="460" width="120" height="40" as="geometry" />
        </mxCell>
        <mxCell id="3BoCwt5KpNZVM9zIBBHS-16" value="专业" style="rounded=0;whiteSpace=wrap;html=1;fontFamily=宋体-简;" parent="1" vertex="1">
          <mxGeometry x="450" y="460" width="120" height="40" as="geometry" />
        </mxCell>
        <mxCell id="3BoCwt5KpNZVM9zIBBHS-17" value="专业-院系" style="rhombus;whiteSpace=wrap;html=1;fontFamily=宋体-简;" parent="1" vertex="1">
          <mxGeometry x="610" y="460" width="80" height="40" as="geometry" />
        </mxCell>
        <mxCell id="3BoCwt5KpNZVM9zIBBHS-19" value="" style="endArrow=none;html=1;rounded=0;entryX=0;entryY=0.5;entryDx=0;entryDy=0;exitX=1;exitY=0.5;exitDx=0;exitDy=0;fontFamily=宋体-简;" parent="1" source="3BoCwt5KpNZVM9zIBBHS-16" target="3BoCwt5KpNZVM9zIBBHS-17" edge="1">
          <mxGeometry width="50" height="50" relative="1" as="geometry">
            <mxPoint x="664" y="542" as="sourcePoint" />
            <mxPoint x="674" y="602" as="targetPoint" />
          </mxGeometry>
        </mxCell>
        <mxCell id="3BoCwt5KpNZVM9zIBBHS-22" value="n" style="edgeLabel;html=1;align=center;verticalAlign=middle;resizable=0;points=[];fontFamily=宋体-简;" parent="3BoCwt5KpNZVM9zIBBHS-19" vertex="1" connectable="0">
          <mxGeometry relative="1" as="geometry">
            <mxPoint as="offset" />
          </mxGeometry>
        </mxCell>
        <mxCell id="3BoCwt5KpNZVM9zIBBHS-20" value="" style="endArrow=none;html=1;rounded=0;entryX=0;entryY=0.5;entryDx=0;entryDy=0;fontFamily=宋体-简;exitX=1;exitY=0.5;exitDx=0;exitDy=0;" parent="1" source="3BoCwt5KpNZVM9zIBBHS-17" target="3BoCwt5KpNZVM9zIBBHS-15" edge="1">
          <mxGeometry width="50" height="50" relative="1" as="geometry">
            <mxPoint x="694" y="480" as="sourcePoint" />
            <mxPoint x="624" y="488" as="targetPoint" />
          </mxGeometry>
        </mxCell>
        <mxCell id="3BoCwt5KpNZVM9zIBBHS-21" value="1" style="edgeLabel;html=1;align=center;verticalAlign=middle;resizable=0;points=[];fontFamily=宋体-简;" parent="3BoCwt5KpNZVM9zIBBHS-20" vertex="1" connectable="0">
          <mxGeometry relative="1" as="geometry">
            <mxPoint as="offset" />
          </mxGeometry>
        </mxCell>
        <mxCell id="3BoCwt5KpNZVM9zIBBHS-23" value="班级-专业" style="rhombus;whiteSpace=wrap;html=1;fontFamily=宋体-简;" parent="1" vertex="1">
          <mxGeometry x="330" y="460" width="80" height="40" as="geometry" />
        </mxCell>
        <mxCell id="3BoCwt5KpNZVM9zIBBHS-25" value="" style="endArrow=none;html=1;rounded=0;entryX=1;entryY=0.5;entryDx=0;entryDy=0;exitX=0;exitY=0.5;exitDx=0;exitDy=0;fontFamily=宋体-简;" parent="1" source="3BoCwt5KpNZVM9zIBBHS-23" target="3BoCwt5KpNZVM9zIBBHS-14" edge="1">
          <mxGeometry width="50" height="50" relative="1" as="geometry">
            <mxPoint x="364" y="610" as="sourcePoint" />
            <mxPoint x="414" y="560" as="targetPoint" />
          </mxGeometry>
        </mxCell>
        <mxCell id="3BoCwt5KpNZVM9zIBBHS-26" value="n" style="edgeLabel;html=1;align=center;verticalAlign=middle;resizable=0;points=[];fontFamily=宋体-简;" parent="3BoCwt5KpNZVM9zIBBHS-25" vertex="1" connectable="0">
          <mxGeometry relative="1" as="geometry">
            <mxPoint as="offset" />
          </mxGeometry>
        </mxCell>
        <mxCell id="3BoCwt5KpNZVM9zIBBHS-27" value="" style="endArrow=none;html=1;rounded=0;exitX=1;exitY=0.5;exitDx=0;exitDy=0;entryX=0;entryY=0.5;entryDx=0;entryDy=0;fontFamily=宋体-简;" parent="1" source="3BoCwt5KpNZVM9zIBBHS-23" target="3BoCwt5KpNZVM9zIBBHS-16" edge="1">
          <mxGeometry width="50" height="50" relative="1" as="geometry">
            <mxPoint x="574" y="590" as="sourcePoint" />
            <mxPoint x="624" y="540" as="targetPoint" />
          </mxGeometry>
        </mxCell>
        <mxCell id="3BoCwt5KpNZVM9zIBBHS-28" value="1" style="edgeLabel;html=1;align=center;verticalAlign=middle;resizable=0;points=[];fontFamily=宋体-简;" parent="3BoCwt5KpNZVM9zIBBHS-27" vertex="1" connectable="0">
          <mxGeometry relative="1" as="geometry">
            <mxPoint as="offset" />
          </mxGeometry>
        </mxCell>
        <mxCell id="3BoCwt5KpNZVM9zIBBHS-30" value="班级号" style="ellipse;whiteSpace=wrap;html=1;fontStyle=4;fontFamily=宋体-简;" parent="1" vertex="1">
          <mxGeometry x="200" y="520" width="60" height="30" as="geometry" />
        </mxCell>
        <mxCell id="3BoCwt5KpNZVM9zIBBHS-31" value="班级-院系" style="rhombus;whiteSpace=wrap;html=1;fontFamily=宋体-简;" parent="1" vertex="1">
          <mxGeometry x="470" y="550" width="80" height="40" as="geometry" />
        </mxCell>
        <mxCell id="3BoCwt5KpNZVM9zIBBHS-32" value="" style="endArrow=none;html=1;rounded=0;entryX=1;entryY=1;entryDx=0;entryDy=0;exitX=0;exitY=0.5;exitDx=0;exitDy=0;fontFamily=宋体-简;" parent="1" source="3BoCwt5KpNZVM9zIBBHS-31" target="3BoCwt5KpNZVM9zIBBHS-14" edge="1">
          <mxGeometry width="50" height="50" relative="1" as="geometry">
            <mxPoint x="344" y="490" as="sourcePoint" />
            <mxPoint x="304" y="490" as="targetPoint" />
          </mxGeometry>
        </mxCell>
        <mxCell id="3BoCwt5KpNZVM9zIBBHS-33" value="n" style="edgeLabel;html=1;align=center;verticalAlign=middle;resizable=0;points=[];fontFamily=宋体-简;" parent="3BoCwt5KpNZVM9zIBBHS-32" vertex="1" connectable="0">
          <mxGeometry relative="1" as="geometry">
            <mxPoint as="offset" />
          </mxGeometry>
        </mxCell>
        <mxCell id="3BoCwt5KpNZVM9zIBBHS-34" value="" style="endArrow=none;html=1;rounded=0;exitX=1;exitY=0.5;exitDx=0;exitDy=0;entryX=0;entryY=1;entryDx=0;entryDy=0;fontFamily=宋体-简;" parent="1" source="3BoCwt5KpNZVM9zIBBHS-31" target="3BoCwt5KpNZVM9zIBBHS-15" edge="1">
          <mxGeometry width="50" height="50" relative="1" as="geometry">
            <mxPoint x="424" y="530" as="sourcePoint" />
            <mxPoint x="464" y="530" as="targetPoint" />
          </mxGeometry>
        </mxCell>
        <mxCell id="3BoCwt5KpNZVM9zIBBHS-35" value="1" style="edgeLabel;html=1;align=center;verticalAlign=middle;resizable=0;points=[];fontFamily=宋体-简;" parent="3BoCwt5KpNZVM9zIBBHS-34" vertex="1" connectable="0">
          <mxGeometry relative="1" as="geometry">
            <mxPoint as="offset" />
          </mxGeometry>
        </mxCell>
        <mxCell id="3BoCwt5KpNZVM9zIBBHS-38" value="" style="endArrow=none;html=1;rounded=0;entryX=0.5;entryY=1;entryDx=0;entryDy=0;exitX=0.5;exitY=0;exitDx=0;exitDy=0;fontFamily=宋体-简;" parent="1" source="3BoCwt5KpNZVM9zIBBHS-30" target="3BoCwt5KpNZVM9zIBBHS-14" edge="1">
          <mxGeometry width="50" height="50" relative="1" as="geometry">
            <mxPoint x="384" y="490" as="sourcePoint" />
            <mxPoint x="434" y="440" as="targetPoint" />
          </mxGeometry>
        </mxCell>
        <mxCell id="3BoCwt5KpNZVM9zIBBHS-39" value="专业名称" style="ellipse;whiteSpace=wrap;html=1;fontFamily=宋体-简;" parent="1" vertex="1">
          <mxGeometry x="520" y="520" width="60" height="30" as="geometry" />
        </mxCell>
        <mxCell id="3BoCwt5KpNZVM9zIBBHS-40" value="" style="endArrow=none;html=1;rounded=0;entryX=0.75;entryY=1;entryDx=0;entryDy=0;exitX=0.5;exitY=0;exitDx=0;exitDy=0;fontFamily=宋体-简;" parent="1" source="3BoCwt5KpNZVM9zIBBHS-39" target="3BoCwt5KpNZVM9zIBBHS-16" edge="1">
          <mxGeometry width="50" height="50" relative="1" as="geometry">
            <mxPoint x="244" y="530" as="sourcePoint" />
            <mxPoint x="244" y="510" as="targetPoint" />
          </mxGeometry>
        </mxCell>
        <mxCell id="3BoCwt5KpNZVM9zIBBHS-41" value="专业号" style="ellipse;whiteSpace=wrap;html=1;fontStyle=4;fontFamily=宋体-简;" parent="1" vertex="1">
          <mxGeometry x="440" y="520" width="60" height="30" as="geometry" />
        </mxCell>
        <mxCell id="3BoCwt5KpNZVM9zIBBHS-42" value="" style="endArrow=none;html=1;rounded=0;entryX=0.25;entryY=1;entryDx=0;entryDy=0;exitX=0.5;exitY=0;exitDx=0;exitDy=0;fontFamily=宋体-简;" parent="1" source="3BoCwt5KpNZVM9zIBBHS-41" target="3BoCwt5KpNZVM9zIBBHS-16" edge="1">
          <mxGeometry width="50" height="50" relative="1" as="geometry">
            <mxPoint x="554" y="530" as="sourcePoint" />
            <mxPoint x="554" y="510" as="targetPoint" />
          </mxGeometry>
        </mxCell>
        <mxCell id="3BoCwt5KpNZVM9zIBBHS-43" value="院系名称" style="ellipse;whiteSpace=wrap;html=1;fontFamily=宋体-简;" parent="1" vertex="1">
          <mxGeometry x="800" y="520" width="60" height="30" as="geometry" />
        </mxCell>
        <mxCell id="3BoCwt5KpNZVM9zIBBHS-44" value="" style="endArrow=none;html=1;rounded=0;exitX=0.5;exitY=0;exitDx=0;exitDy=0;entryX=0.75;entryY=1;entryDx=0;entryDy=0;fontFamily=宋体-简;" parent="1" source="3BoCwt5KpNZVM9zIBBHS-43" target="3BoCwt5KpNZVM9zIBBHS-15" edge="1">
          <mxGeometry width="50" height="50" relative="1" as="geometry">
            <mxPoint x="524" y="530" as="sourcePoint" />
            <mxPoint x="824" y="500" as="targetPoint" />
          </mxGeometry>
        </mxCell>
        <mxCell id="3BoCwt5KpNZVM9zIBBHS-45" value="院系号" style="ellipse;whiteSpace=wrap;html=1;fontStyle=4;fontFamily=宋体-简;" parent="1" vertex="1">
          <mxGeometry x="720" y="520" width="60" height="30" as="geometry" />
        </mxCell>
        <mxCell id="3BoCwt5KpNZVM9zIBBHS-46" value="" style="endArrow=none;html=1;rounded=0;exitX=0.5;exitY=0;exitDx=0;exitDy=0;entryX=0.25;entryY=1;entryDx=0;entryDy=0;fontFamily=宋体-简;" parent="1" source="3BoCwt5KpNZVM9zIBBHS-45" target="3BoCwt5KpNZVM9zIBBHS-15" edge="1">
          <mxGeometry width="50" height="50" relative="1" as="geometry">
            <mxPoint x="834" y="530" as="sourcePoint" />
            <mxPoint x="774" y="510" as="targetPoint" />
          </mxGeometry>
        </mxCell>
        <mxCell id="3BoCwt5KpNZVM9zIBBHS-47" value="学生-班级" style="rhombus;whiteSpace=wrap;html=1;fontFamily=宋体-简;" parent="1" vertex="1">
          <mxGeometry x="110" y="360" width="80" height="40" as="geometry" />
        </mxCell>
        <mxCell id="3BoCwt5KpNZVM9zIBBHS-48" value="" style="endArrow=none;html=1;rounded=0;exitX=0.5;exitY=1;exitDx=0;exitDy=0;entryX=0.5;entryY=0;entryDx=0;entryDy=0;fontFamily=宋体-简;" parent="1" source="3BoCwt5KpNZVM9zIBBHS-47" target="3BoCwt5KpNZVM9zIBBHS-14" edge="1">
          <mxGeometry width="50" height="50" relative="1" as="geometry">
            <mxPoint x="324" y="410.71999999999997" as="sourcePoint" />
            <mxPoint x="364" y="410.71999999999997" as="targetPoint" />
          </mxGeometry>
        </mxCell>
        <mxCell id="3BoCwt5KpNZVM9zIBBHS-49" value="1" style="edgeLabel;html=1;align=center;verticalAlign=middle;resizable=0;points=[];fontFamily=宋体-简;" parent="3BoCwt5KpNZVM9zIBBHS-48" vertex="1" connectable="0">
          <mxGeometry relative="1" as="geometry">
            <mxPoint as="offset" />
          </mxGeometry>
        </mxCell>
        <mxCell id="3BoCwt5KpNZVM9zIBBHS-50" value="" style="endArrow=none;html=1;rounded=0;entryX=0.5;entryY=1;entryDx=0;entryDy=0;exitX=0.5;exitY=0;exitDx=0;exitDy=0;fontFamily=宋体-简;" parent="1" source="3BoCwt5KpNZVM9zIBBHS-47" target="3BoCwt5KpNZVM9zIBBHS-1" edge="1">
          <mxGeometry width="50" height="50" relative="1" as="geometry">
            <mxPoint x="264" y="450" as="sourcePoint" />
            <mxPoint x="224" y="450" as="targetPoint" />
          </mxGeometry>
        </mxCell>
        <mxCell id="3BoCwt5KpNZVM9zIBBHS-51" value="n" style="edgeLabel;html=1;align=center;verticalAlign=middle;resizable=0;points=[];fontFamily=宋体-简;" parent="3BoCwt5KpNZVM9zIBBHS-50" vertex="1" connectable="0">
          <mxGeometry relative="1" as="geometry">
            <mxPoint as="offset" />
          </mxGeometry>
        </mxCell>
        <mxCell id="3BoCwt5KpNZVM9zIBBHS-52" value="学生-专业" style="rhombus;whiteSpace=wrap;html=1;fontFamily=宋体-简;" parent="1" vertex="1">
          <mxGeometry x="210" y="360" width="80" height="40" as="geometry" />
        </mxCell>
        <mxCell id="3BoCwt5KpNZVM9zIBBHS-53" value="学生-院系" style="rhombus;whiteSpace=wrap;html=1;fontFamily=宋体-简;" parent="1" vertex="1">
          <mxGeometry x="310" y="360" width="80" height="40" as="geometry" />
        </mxCell>
        <mxCell id="3BoCwt5KpNZVM9zIBBHS-54" value="" style="endArrow=none;html=1;rounded=0;entryX=0.5;entryY=1;entryDx=0;entryDy=0;exitX=0.5;exitY=0;exitDx=0;exitDy=0;fontFamily=宋体-简;" parent="1" source="3BoCwt5KpNZVM9zIBBHS-52" target="3BoCwt5KpNZVM9zIBBHS-1" edge="1">
          <mxGeometry width="50" height="50" relative="1" as="geometry">
            <mxPoint x="164" y="360" as="sourcePoint" />
            <mxPoint x="164" y="330" as="targetPoint" />
          </mxGeometry>
        </mxCell>
        <mxCell id="3BoCwt5KpNZVM9zIBBHS-55" value="n" style="edgeLabel;html=1;align=center;verticalAlign=middle;resizable=0;points=[];fontFamily=宋体-简;" parent="3BoCwt5KpNZVM9zIBBHS-54" vertex="1" connectable="0">
          <mxGeometry relative="1" as="geometry">
            <mxPoint as="offset" />
          </mxGeometry>
        </mxCell>
        <mxCell id="3BoCwt5KpNZVM9zIBBHS-56" value="" style="endArrow=none;html=1;rounded=0;entryX=0.5;entryY=1;entryDx=0;entryDy=0;exitX=0.5;exitY=0;exitDx=0;exitDy=0;fontFamily=宋体-简;" parent="1" source="3BoCwt5KpNZVM9zIBBHS-53" target="3BoCwt5KpNZVM9zIBBHS-1" edge="1">
          <mxGeometry width="50" height="50" relative="1" as="geometry">
            <mxPoint x="264" y="360" as="sourcePoint" />
            <mxPoint x="164" y="330" as="targetPoint" />
          </mxGeometry>
        </mxCell>
        <mxCell id="3BoCwt5KpNZVM9zIBBHS-57" value="n" style="edgeLabel;html=1;align=center;verticalAlign=middle;resizable=0;points=[];fontFamily=宋体-简;" parent="3BoCwt5KpNZVM9zIBBHS-56" vertex="1" connectable="0">
          <mxGeometry relative="1" as="geometry">
            <mxPoint as="offset" />
          </mxGeometry>
        </mxCell>
        <mxCell id="3BoCwt5KpNZVM9zIBBHS-58" value="" style="endArrow=none;html=1;rounded=0;exitX=0.5;exitY=1;exitDx=0;exitDy=0;entryX=0.25;entryY=0;entryDx=0;entryDy=0;fontFamily=宋体-简;" parent="1" source="3BoCwt5KpNZVM9zIBBHS-52" target="3BoCwt5KpNZVM9zIBBHS-16" edge="1">
          <mxGeometry width="50" height="50" relative="1" as="geometry">
            <mxPoint x="244" y="420.02" as="sourcePoint" />
            <mxPoint x="244" y="450.02" as="targetPoint" />
          </mxGeometry>
        </mxCell>
        <mxCell id="3BoCwt5KpNZVM9zIBBHS-59" value="1" style="edgeLabel;html=1;align=center;verticalAlign=middle;resizable=0;points=[];fontFamily=宋体-简;" parent="3BoCwt5KpNZVM9zIBBHS-58" vertex="1" connectable="0">
          <mxGeometry relative="1" as="geometry">
            <mxPoint as="offset" />
          </mxGeometry>
        </mxCell>
        <mxCell id="3BoCwt5KpNZVM9zIBBHS-60" value="" style="endArrow=none;html=1;rounded=0;exitX=0.5;exitY=1;exitDx=0;exitDy=0;entryX=0.25;entryY=0;entryDx=0;entryDy=0;fontFamily=宋体-简;" parent="1" source="3BoCwt5KpNZVM9zIBBHS-53" target="3BoCwt5KpNZVM9zIBBHS-15" edge="1">
          <mxGeometry width="50" height="50" relative="1" as="geometry">
            <mxPoint x="254" y="430.02" as="sourcePoint" />
            <mxPoint x="254" y="460.02" as="targetPoint" />
          </mxGeometry>
        </mxCell>
        <mxCell id="3BoCwt5KpNZVM9zIBBHS-61" value="1" style="edgeLabel;html=1;align=center;verticalAlign=middle;resizable=0;points=[];fontFamily=宋体-简;" parent="3BoCwt5KpNZVM9zIBBHS-60" vertex="1" connectable="0">
          <mxGeometry relative="1" as="geometry">
            <mxPoint as="offset" />
          </mxGeometry>
        </mxCell>
        <mxCell id="3BoCwt5KpNZVM9zIBBHS-62" value="教师" style="rounded=0;whiteSpace=wrap;html=1;fontFamily=宋体-简;" parent="1" vertex="1">
          <mxGeometry x="730" y="260" width="120" height="40" as="geometry" />
        </mxCell>
        <mxCell id="3BoCwt5KpNZVM9zIBBHS-68" value="工号" style="ellipse;whiteSpace=wrap;html=1;fontStyle=4;fontFamily=宋体-简;" parent="1" vertex="1">
          <mxGeometry x="680" y="220" width="40" height="30" as="geometry" />
        </mxCell>
        <mxCell id="3BoCwt5KpNZVM9zIBBHS-69" value="姓名" style="ellipse;whiteSpace=wrap;html=1;fontFamily=宋体-简;" parent="1" vertex="1">
          <mxGeometry x="730" y="220" width="40" height="30" as="geometry" />
        </mxCell>
        <mxCell id="3BoCwt5KpNZVM9zIBBHS-70" value="性别" style="ellipse;whiteSpace=wrap;html=1;fontFamily=宋体-简;" parent="1" vertex="1">
          <mxGeometry x="780" y="220" width="40" height="30" as="geometry" />
        </mxCell>
        <mxCell id="3BoCwt5KpNZVM9zIBBHS-71" value="" style="endArrow=none;html=1;rounded=0;entryX=0.5;entryY=1;entryDx=0;entryDy=0;exitX=0.2;exitY=0;exitDx=0;exitDy=0;exitPerimeter=0;fontFamily=宋体-简;" parent="1" source="3BoCwt5KpNZVM9zIBBHS-62" target="3BoCwt5KpNZVM9zIBBHS-68" edge="1">
          <mxGeometry width="50" height="50" relative="1" as="geometry">
            <mxPoint x="758" y="256.39" as="sourcePoint" />
            <mxPoint x="874" y="246.39" as="targetPoint" />
          </mxGeometry>
        </mxCell>
        <mxCell id="3BoCwt5KpNZVM9zIBBHS-72" value="" style="endArrow=none;html=1;rounded=0;entryX=0.5;entryY=1;entryDx=0;entryDy=0;exitX=0.4;exitY=0;exitDx=0;exitDy=0;exitPerimeter=0;fontFamily=宋体-简;" parent="1" source="3BoCwt5KpNZVM9zIBBHS-62" target="3BoCwt5KpNZVM9zIBBHS-69" edge="1">
          <mxGeometry width="50" height="50" relative="1" as="geometry">
            <mxPoint x="782" y="256.39" as="sourcePoint" />
            <mxPoint x="844" y="246.39" as="targetPoint" />
          </mxGeometry>
        </mxCell>
        <mxCell id="3BoCwt5KpNZVM9zIBBHS-73" value="" style="endArrow=none;html=1;rounded=0;entryX=0.5;entryY=1;entryDx=0;entryDy=0;exitX=0.6;exitY=0;exitDx=0;exitDy=0;exitPerimeter=0;fontFamily=宋体-简;" parent="1" source="3BoCwt5KpNZVM9zIBBHS-62" target="3BoCwt5KpNZVM9zIBBHS-70" edge="1">
          <mxGeometry width="50" height="50" relative="1" as="geometry">
            <mxPoint x="806" y="256.39" as="sourcePoint" />
            <mxPoint x="874" y="246.39" as="targetPoint" />
          </mxGeometry>
        </mxCell>
        <mxCell id="3BoCwt5KpNZVM9zIBBHS-74" value="联系方式" style="ellipse;whiteSpace=wrap;html=1;fontFamily=宋体-简;" parent="1" vertex="1">
          <mxGeometry x="830" y="220" width="70" height="30" as="geometry" />
        </mxCell>
        <mxCell id="3BoCwt5KpNZVM9zIBBHS-75" value="" style="endArrow=none;html=1;rounded=0;entryX=0.5;entryY=1;entryDx=0;entryDy=0;exitX=0.8;exitY=0;exitDx=0;exitDy=0;exitPerimeter=0;fontFamily=宋体-简;" parent="1" source="3BoCwt5KpNZVM9zIBBHS-62" target="3BoCwt5KpNZVM9zIBBHS-74" edge="1">
          <mxGeometry width="50" height="50" relative="1" as="geometry">
            <mxPoint x="830" y="256.39" as="sourcePoint" />
            <mxPoint x="874" y="246.39" as="targetPoint" />
          </mxGeometry>
        </mxCell>
        <mxCell id="3BoCwt5KpNZVM9zIBBHS-76" value="教师-院系" style="rhombus;whiteSpace=wrap;html=1;fontFamily=宋体-简;" parent="1" vertex="1">
          <mxGeometry x="750" y="360" width="80" height="40" as="geometry" />
        </mxCell>
        <mxCell id="3BoCwt5KpNZVM9zIBBHS-77" value="" style="endArrow=none;html=1;rounded=0;entryX=0.5;entryY=1;entryDx=0;entryDy=0;exitX=0.5;exitY=0;exitDx=0;exitDy=0;fontFamily=宋体-简;" parent="1" source="3BoCwt5KpNZVM9zIBBHS-76" target="3BoCwt5KpNZVM9zIBBHS-62" edge="1">
          <mxGeometry width="50" height="50" relative="1" as="geometry">
            <mxPoint x="444" y="360" as="sourcePoint" />
            <mxPoint x="244" y="330" as="targetPoint" />
          </mxGeometry>
        </mxCell>
        <mxCell id="3BoCwt5KpNZVM9zIBBHS-78" value="n" style="edgeLabel;html=1;align=center;verticalAlign=middle;resizable=0;points=[];fontFamily=宋体-简;" parent="3BoCwt5KpNZVM9zIBBHS-77" vertex="1" connectable="0">
          <mxGeometry relative="1" as="geometry">
            <mxPoint as="offset" />
          </mxGeometry>
        </mxCell>
        <mxCell id="3BoCwt5KpNZVM9zIBBHS-79" value="" style="endArrow=none;html=1;rounded=0;exitX=0.5;exitY=1;exitDx=0;exitDy=0;entryX=0.5;entryY=0;entryDx=0;entryDy=0;fontFamily=宋体-简;" parent="1" source="3BoCwt5KpNZVM9zIBBHS-76" target="3BoCwt5KpNZVM9zIBBHS-15" edge="1">
          <mxGeometry width="50" height="50" relative="1" as="geometry">
            <mxPoint x="444" y="420.02" as="sourcePoint" />
            <mxPoint x="774" y="450.02" as="targetPoint" />
          </mxGeometry>
        </mxCell>
        <mxCell id="3BoCwt5KpNZVM9zIBBHS-80" value="1" style="edgeLabel;html=1;align=center;verticalAlign=middle;resizable=0;points=[];fontFamily=宋体-简;" parent="3BoCwt5KpNZVM9zIBBHS-79" vertex="1" connectable="0">
          <mxGeometry relative="1" as="geometry">
            <mxPoint as="offset" />
          </mxGeometry>
        </mxCell>
        <mxCell id="3BoCwt5KpNZVM9zIBBHS-81" value="班主任" style="rhombus;whiteSpace=wrap;html=1;fontFamily=宋体-简;" parent="1" vertex="1">
          <mxGeometry x="450" y="280" width="80" height="40" as="geometry" />
        </mxCell>
        <mxCell id="3BoCwt5KpNZVM9zIBBHS-82" value="" style="endArrow=none;html=1;rounded=0;exitX=0;exitY=1;exitDx=0;exitDy=0;entryX=1;entryY=0.5;entryDx=0;entryDy=0;fontFamily=宋体-简;" parent="1" source="3BoCwt5KpNZVM9zIBBHS-62" target="3BoCwt5KpNZVM9zIBBHS-81" edge="1">
          <mxGeometry width="50" height="50" relative="1" as="geometry">
            <mxPoint x="444" y="400" as="sourcePoint" />
            <mxPoint x="774" y="430" as="targetPoint" />
          </mxGeometry>
        </mxCell>
        <mxCell id="3BoCwt5KpNZVM9zIBBHS-83" value="1" style="edgeLabel;html=1;align=center;verticalAlign=middle;resizable=0;points=[];fontFamily=宋体-简;" parent="3BoCwt5KpNZVM9zIBBHS-82" vertex="1" connectable="0">
          <mxGeometry relative="1" as="geometry">
            <mxPoint as="offset" />
          </mxGeometry>
        </mxCell>
        <mxCell id="3BoCwt5KpNZVM9zIBBHS-84" value="" style="endArrow=none;html=1;rounded=0;exitX=0.5;exitY=1;exitDx=0;exitDy=0;fontFamily=宋体-简;" parent="1" source="3BoCwt5KpNZVM9zIBBHS-81" edge="1">
          <mxGeometry width="50" height="50" relative="1" as="geometry">
            <mxPoint x="744" y="330" as="sourcePoint" />
            <mxPoint x="290" y="460" as="targetPoint" />
          </mxGeometry>
        </mxCell>
        <mxCell id="3BoCwt5KpNZVM9zIBBHS-85" value="1" style="edgeLabel;html=1;align=center;verticalAlign=middle;resizable=0;points=[];fontFamily=宋体-简;" parent="3BoCwt5KpNZVM9zIBBHS-84" vertex="1" connectable="0">
          <mxGeometry relative="1" as="geometry">
            <mxPoint as="offset" />
          </mxGeometry>
        </mxCell>
        <mxCell id="3BoCwt5KpNZVM9zIBBHS-103" value="课程" style="rounded=0;whiteSpace=wrap;html=1;fontFamily=宋体-简;" parent="1" vertex="1">
          <mxGeometry x="650" y="90" width="120" height="40" as="geometry" />
        </mxCell>
        <mxCell id="3BoCwt5KpNZVM9zIBBHS-104" value="课程名称" style="ellipse;whiteSpace=wrap;html=1;fontFamily=宋体-简;" parent="1" vertex="1">
          <mxGeometry x="650" y="40" width="60" height="30" as="geometry" />
        </mxCell>
        <mxCell id="3BoCwt5KpNZVM9zIBBHS-110" value="学分" style="ellipse;whiteSpace=wrap;html=1;fontFamily=宋体-简;" parent="1" vertex="1">
          <mxGeometry x="790" y="40" width="40" height="30" as="geometry" />
        </mxCell>
        <mxCell id="3BoCwt5KpNZVM9zIBBHS-112" value="课程编号" style="ellipse;whiteSpace=wrap;html=1;fontStyle=4;fontFamily=宋体-简;" parent="1" vertex="1">
          <mxGeometry x="580" y="40" width="60" height="30" as="geometry" />
        </mxCell>
        <mxCell id="3BoCwt5KpNZVM9zIBBHS-113" value="课程分类" style="ellipse;whiteSpace=wrap;html=1;fontFamily=宋体-简;" parent="1" vertex="1">
          <mxGeometry x="720" y="40" width="60" height="30" as="geometry" />
        </mxCell>
        <mxCell id="3BoCwt5KpNZVM9zIBBHS-116" value="" style="endArrow=none;html=1;rounded=0;entryX=0.5;entryY=1;entryDx=0;entryDy=0;exitX=0;exitY=0;exitDx=0;exitDy=0;fontFamily=宋体-简;" parent="1" source="3BoCwt5KpNZVM9zIBBHS-103" target="3BoCwt5KpNZVM9zIBBHS-112" edge="1">
          <mxGeometry width="50" height="50" relative="1" as="geometry">
            <mxPoint x="628" y="90" as="sourcePoint" />
            <mxPoint x="574" y="80" as="targetPoint" />
          </mxGeometry>
        </mxCell>
        <mxCell id="3BoCwt5KpNZVM9zIBBHS-117" value="" style="endArrow=none;html=1;rounded=0;entryX=0.5;entryY=1;entryDx=0;entryDy=0;exitX=0.25;exitY=0;exitDx=0;exitDy=0;fontFamily=宋体-简;" parent="1" source="3BoCwt5KpNZVM9zIBBHS-103" target="3BoCwt5KpNZVM9zIBBHS-104" edge="1">
          <mxGeometry width="50" height="50" relative="1" as="geometry">
            <mxPoint x="696" y="95" as="sourcePoint" />
            <mxPoint x="632" y="75" as="targetPoint" />
          </mxGeometry>
        </mxCell>
        <mxCell id="3BoCwt5KpNZVM9zIBBHS-118" value="" style="endArrow=none;html=1;rounded=0;entryX=0.5;entryY=1;entryDx=0;entryDy=0;exitX=0.454;exitY=0;exitDx=0;exitDy=0;exitPerimeter=0;fontFamily=宋体-简;" parent="1" source="3BoCwt5KpNZVM9zIBBHS-103" target="3BoCwt5KpNZVM9zIBBHS-113" edge="1">
          <mxGeometry width="50" height="50" relative="1" as="geometry">
            <mxPoint x="658" y="100" as="sourcePoint" />
            <mxPoint x="644" y="80" as="targetPoint" />
          </mxGeometry>
        </mxCell>
        <mxCell id="3BoCwt5KpNZVM9zIBBHS-119" value="" style="endArrow=none;html=1;rounded=0;entryX=0.5;entryY=1;entryDx=0;entryDy=0;exitX=0.75;exitY=0;exitDx=0;exitDy=0;fontFamily=宋体-简;" parent="1" source="3BoCwt5KpNZVM9zIBBHS-103" target="3BoCwt5KpNZVM9zIBBHS-110" edge="1">
          <mxGeometry width="50" height="50" relative="1" as="geometry">
            <mxPoint x="682" y="100" as="sourcePoint" />
            <mxPoint x="714" y="80" as="targetPoint" />
          </mxGeometry>
        </mxCell>
        <mxCell id="3BoCwt5KpNZVM9zIBBHS-120" value="申报" style="rhombus;whiteSpace=wrap;html=1;fontFamily=宋体-简;" parent="1" vertex="1">
          <mxGeometry x="710" y="150" width="80" height="40" as="geometry" />
        </mxCell>
        <mxCell id="3BoCwt5KpNZVM9zIBBHS-121" value="" style="endArrow=none;html=1;rounded=0;entryX=0.5;entryY=1;entryDx=0;entryDy=0;exitX=0.5;exitY=0;exitDx=0;exitDy=0;fontFamily=宋体-简;" parent="1" source="3BoCwt5KpNZVM9zIBBHS-120" target="3BoCwt5KpNZVM9zIBBHS-103" edge="1">
          <mxGeometry width="50" height="50" relative="1" as="geometry">
            <mxPoint x="654" y="169" as="sourcePoint" />
            <mxPoint x="704" y="170" as="targetPoint" />
          </mxGeometry>
        </mxCell>
        <mxCell id="3BoCwt5KpNZVM9zIBBHS-124" value="n" style="edgeLabel;html=1;align=center;verticalAlign=middle;resizable=0;points=[];fontFamily=宋体-简;" parent="3BoCwt5KpNZVM9zIBBHS-121" vertex="1" connectable="0">
          <mxGeometry relative="1" as="geometry">
            <mxPoint as="offset" />
          </mxGeometry>
        </mxCell>
        <mxCell id="3BoCwt5KpNZVM9zIBBHS-122" value="" style="endArrow=none;html=1;rounded=0;entryX=0.5;entryY=1;entryDx=0;entryDy=0;exitX=0.5;exitY=0;exitDx=0;exitDy=0;fontFamily=宋体-简;" parent="1" source="3BoCwt5KpNZVM9zIBBHS-62" target="3BoCwt5KpNZVM9zIBBHS-120" edge="1">
          <mxGeometry width="50" height="50" relative="1" as="geometry">
            <mxPoint x="664" y="109" as="sourcePoint" />
            <mxPoint x="664" y="70" as="targetPoint" />
            <Array as="points" />
          </mxGeometry>
        </mxCell>
        <mxCell id="3BoCwt5KpNZVM9zIBBHS-125" value="1" style="edgeLabel;html=1;align=center;verticalAlign=middle;resizable=0;points=[];fontFamily=宋体-简;" parent="3BoCwt5KpNZVM9zIBBHS-122" vertex="1" connectable="0">
          <mxGeometry relative="1" as="geometry">
            <mxPoint x="-10" y="-15" as="offset" />
          </mxGeometry>
        </mxCell>
        <mxCell id="3BoCwt5KpNZVM9zIBBHS-128" value="" style="endArrow=none;html=1;rounded=0;entryX=0;entryY=0.5;entryDx=0;entryDy=0;fontFamily=宋体-简;exitX=1;exitY=0.5;exitDx=0;exitDy=0;" parent="1" source="5ua1pPFVDwQ-sEWEfWyi-17" target="3BoCwt5KpNZVM9zIBBHS-103" edge="1">
          <mxGeometry width="50" height="50" relative="1" as="geometry">
            <mxPoint x="590" y="110" as="sourcePoint" />
            <mxPoint x="584" y="120" as="targetPoint" />
          </mxGeometry>
        </mxCell>
        <mxCell id="3BoCwt5KpNZVM9zIBBHS-129" value="1" style="edgeLabel;html=1;align=center;verticalAlign=middle;resizable=0;points=[];fontFamily=宋体-简;" parent="3BoCwt5KpNZVM9zIBBHS-128" vertex="1" connectable="0">
          <mxGeometry relative="1" as="geometry">
            <mxPoint as="offset" />
          </mxGeometry>
        </mxCell>
        <mxCell id="9R8SngfWk_mVwCr1KFd2-7" value="申报教师工号" style="ellipse;whiteSpace=wrap;html=1;fontFamily=宋体-简;" parent="1" vertex="1">
          <mxGeometry x="810" y="155" width="90" height="30" as="geometry" />
        </mxCell>
        <mxCell id="9R8SngfWk_mVwCr1KFd2-8" value="" style="endArrow=none;html=1;rounded=0;entryX=0;entryY=0.5;entryDx=0;entryDy=0;fontFamily=宋体-简;exitX=1;exitY=0.5;exitDx=0;exitDy=0;" parent="1" source="3BoCwt5KpNZVM9zIBBHS-120" target="9R8SngfWk_mVwCr1KFd2-7" edge="1">
          <mxGeometry width="50" height="50" relative="1" as="geometry">
            <mxPoint x="810" y="170" as="sourcePoint" />
            <mxPoint x="794" y="130" as="targetPoint" />
          </mxGeometry>
        </mxCell>
        <mxCell id="9R8SngfWk_mVwCr1KFd2-10" value="学院教务-院系" style="rhombus;whiteSpace=wrap;html=1;fontFamily=宋体-简;" parent="1" vertex="1">
          <mxGeometry x="680" y="400" width="100" height="40" as="geometry" />
        </mxCell>
        <mxCell id="9R8SngfWk_mVwCr1KFd2-13" value="" style="endArrow=none;html=1;rounded=0;entryX=0.5;entryY=0;entryDx=0;entryDy=0;exitX=0.5;exitY=1;exitDx=0;exitDy=0;fontFamily=宋体-简;" parent="1" source="9R8SngfWk_mVwCr1KFd2-10" target="3BoCwt5KpNZVM9zIBBHS-15" edge="1">
          <mxGeometry width="50" height="50" relative="1" as="geometry">
            <mxPoint x="974" y="440" as="sourcePoint" />
            <mxPoint x="1014" y="440" as="targetPoint" />
          </mxGeometry>
        </mxCell>
        <mxCell id="9R8SngfWk_mVwCr1KFd2-14" value="1" style="edgeLabel;html=1;align=center;verticalAlign=middle;resizable=0;points=[];fontFamily=宋体-简;" parent="9R8SngfWk_mVwCr1KFd2-13" vertex="1" connectable="0">
          <mxGeometry relative="1" as="geometry">
            <mxPoint as="offset" />
          </mxGeometry>
        </mxCell>
        <mxCell id="9R8SngfWk_mVwCr1KFd2-34" value="场地资源" style="rounded=0;whiteSpace=wrap;html=1;fontFamily=宋体-简;" parent="1" vertex="1">
          <mxGeometry x="50" y="90" width="120" height="40" as="geometry" />
        </mxCell>
        <mxCell id="9R8SngfWk_mVwCr1KFd2-45" value="选课" style="rhombus;whiteSpace=wrap;html=1;fontFamily=宋体-简;" parent="1" vertex="1">
          <mxGeometry x="280" y="200" width="80" height="40" as="geometry" />
        </mxCell>
        <mxCell id="9R8SngfWk_mVwCr1KFd2-47" value="成绩" style="ellipse;whiteSpace=wrap;html=1;fontFamily=宋体-简;" parent="1" vertex="1">
          <mxGeometry x="370" y="230" width="50" height="30" as="geometry" />
        </mxCell>
        <mxCell id="9R8SngfWk_mVwCr1KFd2-49" value="" style="endArrow=none;html=1;rounded=0;exitX=1;exitY=0.5;exitDx=0;exitDy=0;entryX=0.5;entryY=1;entryDx=0;entryDy=0;fontFamily=宋体-简;" parent="1" source="3BoCwt5KpNZVM9zIBBHS-1" target="9R8SngfWk_mVwCr1KFd2-45" edge="1">
          <mxGeometry width="50" height="50" relative="1" as="geometry">
            <mxPoint x="254" y="280" as="sourcePoint" />
            <mxPoint x="304" y="230" as="targetPoint" />
          </mxGeometry>
        </mxCell>
        <mxCell id="9R8SngfWk_mVwCr1KFd2-52" value="n" style="edgeLabel;html=1;align=center;verticalAlign=middle;resizable=0;points=[];fontFamily=宋体-简;" parent="9R8SngfWk_mVwCr1KFd2-49" vertex="1" connectable="0">
          <mxGeometry relative="1" as="geometry">
            <mxPoint x="1" as="offset" />
          </mxGeometry>
        </mxCell>
        <mxCell id="9R8SngfWk_mVwCr1KFd2-53" value="" style="endArrow=none;html=1;rounded=0;entryX=0.5;entryY=0;entryDx=0;entryDy=0;fontFamily=宋体-简;exitX=0.5;exitY=1;exitDx=0;exitDy=0;" parent="1" source="5ua1pPFVDwQ-sEWEfWyi-16" target="9R8SngfWk_mVwCr1KFd2-45" edge="1">
          <mxGeometry width="50" height="50" relative="1" as="geometry">
            <mxPoint x="390" y="140" as="sourcePoint" />
            <mxPoint x="464" y="50" as="targetPoint" />
          </mxGeometry>
        </mxCell>
        <mxCell id="9R8SngfWk_mVwCr1KFd2-55" value="m" style="edgeLabel;html=1;align=center;verticalAlign=middle;resizable=0;points=[];fontFamily=宋体-简;" parent="9R8SngfWk_mVwCr1KFd2-53" vertex="1" connectable="0">
          <mxGeometry relative="1" as="geometry">
            <mxPoint as="offset" />
          </mxGeometry>
        </mxCell>
        <mxCell id="9R8SngfWk_mVwCr1KFd2-56" value="" style="endArrow=none;html=1;rounded=0;exitX=1;exitY=1;exitDx=0;exitDy=0;entryX=0;entryY=0.5;entryDx=0;entryDy=0;fontFamily=宋体-简;" parent="1" source="9R8SngfWk_mVwCr1KFd2-45" target="9R8SngfWk_mVwCr1KFd2-47" edge="1">
          <mxGeometry width="50" height="50" relative="1" as="geometry">
            <mxPoint x="434" y="310" as="sourcePoint" />
            <mxPoint x="484" y="260" as="targetPoint" />
          </mxGeometry>
        </mxCell>
        <mxCell id="9R8SngfWk_mVwCr1KFd2-57" value="评教分数" style="ellipse;whiteSpace=wrap;html=1;fontFamily=宋体-简;" parent="1" vertex="1">
          <mxGeometry x="370" y="180" width="60" height="30" as="geometry" />
        </mxCell>
        <mxCell id="9R8SngfWk_mVwCr1KFd2-59" value="" style="endArrow=none;html=1;rounded=0;exitX=1;exitY=0;exitDx=0;exitDy=0;entryX=0;entryY=0.5;entryDx=0;entryDy=0;fontFamily=宋体-简;" parent="1" source="9R8SngfWk_mVwCr1KFd2-45" target="9R8SngfWk_mVwCr1KFd2-57" edge="1">
          <mxGeometry width="50" height="50" relative="1" as="geometry">
            <mxPoint x="354" y="240" as="sourcePoint" />
            <mxPoint x="384" y="257" as="targetPoint" />
          </mxGeometry>
        </mxCell>
        <mxCell id="9R8SngfWk_mVwCr1KFd2-60" value="选课" style="rhombus;whiteSpace=wrap;html=1;fontFamily=宋体-简;" parent="1" vertex="1">
          <mxGeometry x="440" y="200" width="80" height="40" as="geometry" />
        </mxCell>
        <mxCell id="9R8SngfWk_mVwCr1KFd2-61" value="" style="endArrow=none;html=1;rounded=0;exitX=1;exitY=0.5;exitDx=0;exitDy=0;entryX=0.5;entryY=1;entryDx=0;entryDy=0;fontFamily=宋体-简;" parent="1" source="3BoCwt5KpNZVM9zIBBHS-1" target="9R8SngfWk_mVwCr1KFd2-60" edge="1">
          <mxGeometry width="50" height="50" relative="1" as="geometry">
            <mxPoint x="224" y="290" as="sourcePoint" />
            <mxPoint x="334" y="250" as="targetPoint" />
            <Array as="points">
              <mxPoint x="480" y="280" />
            </Array>
          </mxGeometry>
        </mxCell>
        <mxCell id="9R8SngfWk_mVwCr1KFd2-64" value="n" style="edgeLabel;html=1;align=center;verticalAlign=middle;resizable=0;points=[];fontFamily=宋体-简;" parent="9R8SngfWk_mVwCr1KFd2-61" vertex="1" connectable="0">
          <mxGeometry relative="1" as="geometry">
            <mxPoint as="offset" />
          </mxGeometry>
        </mxCell>
        <mxCell id="9R8SngfWk_mVwCr1KFd2-65" value="" style="endArrow=none;html=1;rounded=0;entryX=0.5;entryY=0;entryDx=0;entryDy=0;fontFamily=宋体-简;exitX=0.5;exitY=1;exitDx=0;exitDy=0;" parent="1" source="5ua1pPFVDwQ-sEWEfWyi-16" target="9R8SngfWk_mVwCr1KFd2-60" edge="1">
          <mxGeometry width="50" height="50" relative="1" as="geometry">
            <mxPoint x="390" y="150" as="sourcePoint" />
            <mxPoint x="334" y="130" as="targetPoint" />
          </mxGeometry>
        </mxCell>
        <mxCell id="9R8SngfWk_mVwCr1KFd2-66" value="m" style="edgeLabel;html=1;align=center;verticalAlign=middle;resizable=0;points=[];fontFamily=宋体-简;" parent="9R8SngfWk_mVwCr1KFd2-65" vertex="1" connectable="0">
          <mxGeometry relative="1" as="geometry">
            <mxPoint as="offset" />
          </mxGeometry>
        </mxCell>
        <mxCell id="9R8SngfWk_mVwCr1KFd2-67" value="自我介绍" style="ellipse;whiteSpace=wrap;html=1;fontFamily=宋体-简;" parent="1" vertex="1">
          <mxGeometry x="530" y="230" width="60" height="30" as="geometry" />
        </mxCell>
        <mxCell id="9R8SngfWk_mVwCr1KFd2-68" value="" style="endArrow=none;html=1;rounded=0;exitX=1;exitY=1;exitDx=0;exitDy=0;entryX=0;entryY=0.5;entryDx=0;entryDy=0;fontFamily=宋体-简;" parent="1" source="9R8SngfWk_mVwCr1KFd2-60" target="9R8SngfWk_mVwCr1KFd2-67" edge="1">
          <mxGeometry width="50" height="50" relative="1" as="geometry">
            <mxPoint x="514" y="232" as="sourcePoint" />
            <mxPoint x="654" y="262" as="targetPoint" />
          </mxGeometry>
        </mxCell>
        <mxCell id="9R8SngfWk_mVwCr1KFd2-69" value="志愿顺序" style="ellipse;whiteSpace=wrap;html=1;fontFamily=宋体-简;" parent="1" vertex="1">
          <mxGeometry x="530" y="180" width="60" height="30" as="geometry" />
        </mxCell>
        <mxCell id="9R8SngfWk_mVwCr1KFd2-70" value="" style="endArrow=none;html=1;rounded=0;exitX=1;exitY=0;exitDx=0;exitDy=0;entryX=0;entryY=0.5;entryDx=0;entryDy=0;fontFamily=宋体-简;" parent="1" source="9R8SngfWk_mVwCr1KFd2-60" target="9R8SngfWk_mVwCr1KFd2-69" edge="1">
          <mxGeometry width="50" height="50" relative="1" as="geometry">
            <mxPoint x="514" y="212" as="sourcePoint" />
            <mxPoint x="554" y="259" as="targetPoint" />
          </mxGeometry>
        </mxCell>
        <mxCell id="9R8SngfWk_mVwCr1KFd2-82" value="学院教务" style="rounded=0;whiteSpace=wrap;html=1;fontFamily=宋体-简;" parent="1" vertex="1">
          <mxGeometry x="550" y="360" width="120" height="40" as="geometry" />
        </mxCell>
        <mxCell id="9R8SngfWk_mVwCr1KFd2-85" value="工号" style="ellipse;whiteSpace=wrap;html=1;fontStyle=4;fontFamily=宋体-简;" parent="1" vertex="1">
          <mxGeometry x="500" y="320" width="40" height="30" as="geometry" />
        </mxCell>
        <mxCell id="9R8SngfWk_mVwCr1KFd2-86" value="姓名" style="ellipse;whiteSpace=wrap;html=1;fontFamily=宋体-简;" parent="1" vertex="1">
          <mxGeometry x="550" y="320" width="40" height="30" as="geometry" />
        </mxCell>
        <mxCell id="9R8SngfWk_mVwCr1KFd2-87" value="性别" style="ellipse;whiteSpace=wrap;html=1;fontFamily=宋体-简;" parent="1" vertex="1">
          <mxGeometry x="600" y="320" width="40" height="30" as="geometry" />
        </mxCell>
        <mxCell id="9R8SngfWk_mVwCr1KFd2-88" value="" style="endArrow=none;html=1;rounded=0;entryX=0.5;entryY=1;entryDx=0;entryDy=0;exitX=0.2;exitY=0;exitDx=0;exitDy=0;exitPerimeter=0;fontFamily=宋体-简;" parent="1" source="9R8SngfWk_mVwCr1KFd2-82" target="9R8SngfWk_mVwCr1KFd2-85" edge="1">
          <mxGeometry width="50" height="50" relative="1" as="geometry">
            <mxPoint x="578" y="360.02" as="sourcePoint" />
            <mxPoint x="694" y="346.40999999999997" as="targetPoint" />
          </mxGeometry>
        </mxCell>
        <mxCell id="9R8SngfWk_mVwCr1KFd2-89" value="" style="endArrow=none;html=1;rounded=0;entryX=0.5;entryY=1;entryDx=0;entryDy=0;exitX=0.4;exitY=0;exitDx=0;exitDy=0;exitPerimeter=0;fontFamily=宋体-简;" parent="1" source="9R8SngfWk_mVwCr1KFd2-82" target="9R8SngfWk_mVwCr1KFd2-86" edge="1">
          <mxGeometry width="50" height="50" relative="1" as="geometry">
            <mxPoint x="602" y="360.02" as="sourcePoint" />
            <mxPoint x="664" y="346.40999999999997" as="targetPoint" />
          </mxGeometry>
        </mxCell>
        <mxCell id="9R8SngfWk_mVwCr1KFd2-90" value="" style="endArrow=none;html=1;rounded=0;entryX=0.5;entryY=1;entryDx=0;entryDy=0;exitX=0.6;exitY=0;exitDx=0;exitDy=0;exitPerimeter=0;fontFamily=宋体-简;" parent="1" source="9R8SngfWk_mVwCr1KFd2-82" target="9R8SngfWk_mVwCr1KFd2-87" edge="1">
          <mxGeometry width="50" height="50" relative="1" as="geometry">
            <mxPoint x="626" y="360.02" as="sourcePoint" />
            <mxPoint x="694" y="346.40999999999997" as="targetPoint" />
          </mxGeometry>
        </mxCell>
        <mxCell id="9R8SngfWk_mVwCr1KFd2-91" value="联系方式" style="ellipse;whiteSpace=wrap;html=1;fontFamily=宋体-简;" parent="1" vertex="1">
          <mxGeometry x="650" y="320" width="70" height="30" as="geometry" />
        </mxCell>
        <mxCell id="9R8SngfWk_mVwCr1KFd2-92" value="" style="endArrow=none;html=1;rounded=0;entryX=0.5;entryY=1;entryDx=0;entryDy=0;exitX=0.8;exitY=0;exitDx=0;exitDy=0;exitPerimeter=0;fontFamily=宋体-简;" parent="1" source="9R8SngfWk_mVwCr1KFd2-82" target="9R8SngfWk_mVwCr1KFd2-91" edge="1">
          <mxGeometry width="50" height="50" relative="1" as="geometry">
            <mxPoint x="650" y="360.02" as="sourcePoint" />
            <mxPoint x="694" y="346.40999999999997" as="targetPoint" />
          </mxGeometry>
        </mxCell>
        <mxCell id="9R8SngfWk_mVwCr1KFd2-104" value="" style="endArrow=none;html=1;rounded=0;entryX=0.5;entryY=0;entryDx=0;entryDy=0;exitX=1;exitY=0.5;exitDx=0;exitDy=0;fontFamily=宋体-简;" parent="1" source="9R8SngfWk_mVwCr1KFd2-82" target="9R8SngfWk_mVwCr1KFd2-10" edge="1">
          <mxGeometry width="50" height="50" relative="1" as="geometry">
            <mxPoint x="740" y="450" as="sourcePoint" />
            <mxPoint x="800" y="470" as="targetPoint" />
          </mxGeometry>
        </mxCell>
        <mxCell id="9R8SngfWk_mVwCr1KFd2-105" value="n" style="edgeLabel;html=1;align=center;verticalAlign=middle;resizable=0;points=[];fontFamily=宋体-简;" parent="9R8SngfWk_mVwCr1KFd2-104" vertex="1" connectable="0">
          <mxGeometry relative="1" as="geometry">
            <mxPoint as="offset" />
          </mxGeometry>
        </mxCell>
        <mxCell id="9R8SngfWk_mVwCr1KFd2-107" value="&lt;u&gt;场地资源编号&lt;/u&gt;" style="ellipse;whiteSpace=wrap;html=1;fontFamily=宋体-简;" parent="1" vertex="1">
          <mxGeometry x="60" y="40" width="100" height="30" as="geometry" />
        </mxCell>
        <mxCell id="9R8SngfWk_mVwCr1KFd2-108" value="" style="endArrow=none;html=1;rounded=0;exitX=0.5;exitY=1;exitDx=0;exitDy=0;entryX=0.5;entryY=0;entryDx=0;entryDy=0;fontFamily=宋体-简;" parent="1" source="9R8SngfWk_mVwCr1KFd2-107" target="9R8SngfWk_mVwCr1KFd2-34" edge="1">
          <mxGeometry width="50" height="50" relative="1" as="geometry">
            <mxPoint x="130" y="80" as="sourcePoint" />
            <mxPoint x="150" y="100" as="targetPoint" />
          </mxGeometry>
        </mxCell>
        <mxCell id="p91Yb7fb0jG22XeW4vL_-1" value="开设" style="rhombus;whiteSpace=wrap;html=1;fontFamily=宋体-简;" parent="1" vertex="1">
          <mxGeometry x="560" y="130" width="80" height="40" as="geometry" />
        </mxCell>
        <mxCell id="p91Yb7fb0jG22XeW4vL_-2" value="" style="endArrow=none;html=1;rounded=0;exitX=0;exitY=0.5;exitDx=0;exitDy=0;fontFamily=宋体-简;entryX=1;entryY=1;entryDx=0;entryDy=0;" parent="1" source="p91Yb7fb0jG22XeW4vL_-1" target="5ua1pPFVDwQ-sEWEfWyi-16" edge="1">
          <mxGeometry width="50" height="50" relative="1" as="geometry">
            <mxPoint x="480" y="120" as="sourcePoint" />
            <mxPoint x="460" y="160" as="targetPoint" />
          </mxGeometry>
        </mxCell>
        <mxCell id="p91Yb7fb0jG22XeW4vL_-3" value="n" style="edgeLabel;html=1;align=center;verticalAlign=middle;resizable=0;points=[];fontFamily=宋体-简;" parent="p91Yb7fb0jG22XeW4vL_-2" vertex="1" connectable="0">
          <mxGeometry relative="1" as="geometry">
            <mxPoint as="offset" />
          </mxGeometry>
        </mxCell>
        <mxCell id="p91Yb7fb0jG22XeW4vL_-4" value="" style="endArrow=none;html=1;rounded=0;exitX=0;exitY=0.5;exitDx=0;exitDy=0;entryX=0.5;entryY=1;entryDx=0;entryDy=0;fontFamily=宋体-简;" parent="1" source="3BoCwt5KpNZVM9zIBBHS-62" target="p91Yb7fb0jG22XeW4vL_-1" edge="1">
          <mxGeometry width="50" height="50" relative="1" as="geometry">
            <mxPoint x="740" y="160" as="sourcePoint" />
            <mxPoint x="610" y="120" as="targetPoint" />
            <Array as="points">
              <mxPoint x="600" y="280" />
            </Array>
          </mxGeometry>
        </mxCell>
        <mxCell id="p91Yb7fb0jG22XeW4vL_-5" value="1" style="edgeLabel;html=1;align=center;verticalAlign=middle;resizable=0;points=[];fontFamily=宋体-简;" parent="p91Yb7fb0jG22XeW4vL_-4" vertex="1" connectable="0">
          <mxGeometry relative="1" as="geometry">
            <mxPoint x="50" as="offset" />
          </mxGeometry>
        </mxCell>
        <mxCell id="4wsrMvlx6egg2bwKD8JD-4" value="" style="endArrow=none;html=1;rounded=0;fontFamily=宋体-简;entryX=1;entryY=0.5;entryDx=0;entryDy=0;exitX=0;exitY=0.5;exitDx=0;exitDy=0;" parent="1" source="5ua1pPFVDwQ-sEWEfWyi-28" target="9R8SngfWk_mVwCr1KFd2-34" edge="1">
          <mxGeometry width="50" height="50" relative="1" as="geometry">
            <mxPoint x="210" y="110" as="sourcePoint" />
            <mxPoint x="170" y="130" as="targetPoint" />
          </mxGeometry>
        </mxCell>
        <mxCell id="4wsrMvlx6egg2bwKD8JD-5" value="m" style="edgeLabel;html=1;align=center;verticalAlign=middle;resizable=0;points=[];fontFamily=宋体-简;" parent="4wsrMvlx6egg2bwKD8JD-4" vertex="1" connectable="0">
          <mxGeometry relative="1" as="geometry">
            <mxPoint as="offset" />
          </mxGeometry>
        </mxCell>
        <mxCell id="4wsrMvlx6egg2bwKD8JD-8" value="学时" style="ellipse;whiteSpace=wrap;html=1;fontFamily=宋体-简;" parent="1" vertex="1">
          <mxGeometry x="840" y="40" width="40" height="30" as="geometry" />
        </mxCell>
        <mxCell id="4wsrMvlx6egg2bwKD8JD-9" value="" style="endArrow=none;html=1;rounded=0;entryX=0.5;entryY=1;entryDx=0;entryDy=0;exitX=1;exitY=0;exitDx=0;exitDy=0;fontFamily=宋体-简;" parent="1" source="3BoCwt5KpNZVM9zIBBHS-103" target="4wsrMvlx6egg2bwKD8JD-8" edge="1">
          <mxGeometry width="50" height="50" relative="1" as="geometry">
            <mxPoint x="700" y="100" as="sourcePoint" />
            <mxPoint x="770" y="80" as="targetPoint" />
          </mxGeometry>
        </mxCell>
        <mxCell id="4wsrMvlx6egg2bwKD8JD-20" value="开设学期" style="ellipse;whiteSpace=wrap;html=1;fontFamily=宋体-简;" parent="1" vertex="1">
          <mxGeometry x="220" y="150" width="60" height="30" as="geometry" />
        </mxCell>
        <mxCell id="4wsrMvlx6egg2bwKD8JD-21" value="" style="endArrow=none;html=1;rounded=0;exitX=0.5;exitY=1;exitDx=0;exitDy=0;entryX=0.5;entryY=0;entryDx=0;entryDy=0;fontFamily=宋体-简;" parent="1" source="5ua1pPFVDwQ-sEWEfWyi-28" target="4wsrMvlx6egg2bwKD8JD-20" edge="1">
          <mxGeometry width="50" height="50" relative="1" as="geometry">
            <mxPoint x="250" y="130" as="sourcePoint" />
            <mxPoint x="320" y="120" as="targetPoint" />
          </mxGeometry>
        </mxCell>
        <mxCell id="4wsrMvlx6egg2bwKD8JD-24" value="场地名称" style="ellipse;whiteSpace=wrap;html=1;fontFamily=宋体-简;" parent="1" vertex="1">
          <mxGeometry x="40" y="150" width="60" height="30" as="geometry" />
        </mxCell>
        <mxCell id="4wsrMvlx6egg2bwKD8JD-25" value="可用时间" style="ellipse;whiteSpace=wrap;html=1;fontFamily=宋体-简;" parent="1" vertex="1">
          <mxGeometry x="120" y="150" width="60" height="30" as="geometry" />
        </mxCell>
        <mxCell id="4wsrMvlx6egg2bwKD8JD-26" value="" style="endArrow=none;html=1;rounded=0;exitX=0.75;exitY=1;exitDx=0;exitDy=0;entryX=0.5;entryY=0;entryDx=0;entryDy=0;fontFamily=宋体-简;" parent="1" source="9R8SngfWk_mVwCr1KFd2-34" target="4wsrMvlx6egg2bwKD8JD-25" edge="1">
          <mxGeometry width="50" height="50" relative="1" as="geometry">
            <mxPoint x="260" y="140" as="sourcePoint" />
            <mxPoint x="260" y="160" as="targetPoint" />
          </mxGeometry>
        </mxCell>
        <mxCell id="4wsrMvlx6egg2bwKD8JD-27" value="" style="endArrow=none;html=1;rounded=0;exitX=0.25;exitY=1;exitDx=0;exitDy=0;entryX=0.5;entryY=0;entryDx=0;entryDy=0;fontFamily=宋体-简;" parent="1" source="9R8SngfWk_mVwCr1KFd2-34" target="4wsrMvlx6egg2bwKD8JD-24" edge="1">
          <mxGeometry width="50" height="50" relative="1" as="geometry">
            <mxPoint x="150" y="140" as="sourcePoint" />
            <mxPoint x="160" y="160" as="targetPoint" />
          </mxGeometry>
        </mxCell>
        <mxCell id="5ua1pPFVDwQ-sEWEfWyi-16" value="教学班" style="rounded=0;whiteSpace=wrap;html=1;fontFamily=宋体-简;" parent="1" vertex="1">
          <mxGeometry x="330" y="90" width="120" height="40" as="geometry" />
        </mxCell>
        <mxCell id="5ua1pPFVDwQ-sEWEfWyi-17" value="课程-教学班" style="rhombus;whiteSpace=wrap;html=1;fontFamily=宋体-简;" parent="1" vertex="1">
          <mxGeometry x="500" y="90" width="100" height="40" as="geometry" />
        </mxCell>
        <mxCell id="5ua1pPFVDwQ-sEWEfWyi-18" value="" style="endArrow=none;html=1;rounded=0;exitX=0;exitY=0.5;exitDx=0;exitDy=0;entryX=1;entryY=0.5;entryDx=0;entryDy=0;fontFamily=宋体-简;" parent="1" source="5ua1pPFVDwQ-sEWEfWyi-17" target="5ua1pPFVDwQ-sEWEfWyi-16" edge="1">
          <mxGeometry width="50" height="50" relative="1" as="geometry">
            <mxPoint x="474" y="109.75999999999999" as="sourcePoint" />
            <mxPoint x="444" y="130" as="targetPoint" />
          </mxGeometry>
        </mxCell>
        <mxCell id="5ua1pPFVDwQ-sEWEfWyi-19" value="n" style="edgeLabel;html=1;align=center;verticalAlign=middle;resizable=0;points=[];fontFamily=宋体-简;" parent="5ua1pPFVDwQ-sEWEfWyi-18" vertex="1" connectable="0">
          <mxGeometry relative="1" as="geometry">
            <mxPoint as="offset" />
          </mxGeometry>
        </mxCell>
        <mxCell id="5ua1pPFVDwQ-sEWEfWyi-20" value="教学班编号" style="ellipse;whiteSpace=wrap;html=1;fontStyle=4;fontFamily=宋体-简;" parent="1" vertex="1">
          <mxGeometry x="250" y="40" width="80" height="30" as="geometry" />
        </mxCell>
        <mxCell id="5ua1pPFVDwQ-sEWEfWyi-21" value="教学班容量" style="ellipse;whiteSpace=wrap;html=1;fontFamily=宋体-简;" parent="1" vertex="1">
          <mxGeometry x="350" y="40" width="80" height="30" as="geometry" />
        </mxCell>
        <mxCell id="5ua1pPFVDwQ-sEWEfWyi-23" value="额外说明" style="ellipse;whiteSpace=wrap;html=1;fontFamily=宋体-简;" parent="1" vertex="1">
          <mxGeometry x="450" y="40" width="60" height="30" as="geometry" />
        </mxCell>
        <mxCell id="5ua1pPFVDwQ-sEWEfWyi-24" value="" style="endArrow=none;html=1;rounded=0;exitX=0.5;exitY=1;exitDx=0;exitDy=0;entryX=0.25;entryY=0;entryDx=0;entryDy=0;fontFamily=宋体-简;" parent="1" source="5ua1pPFVDwQ-sEWEfWyi-20" target="5ua1pPFVDwQ-sEWEfWyi-16" edge="1">
          <mxGeometry width="50" height="50" relative="1" as="geometry">
            <mxPoint x="294" y="170" as="sourcePoint" />
            <mxPoint x="344" y="120" as="targetPoint" />
          </mxGeometry>
        </mxCell>
        <mxCell id="5ua1pPFVDwQ-sEWEfWyi-25" value="" style="endArrow=none;html=1;rounded=0;exitX=0.5;exitY=1;exitDx=0;exitDy=0;entryX=0.5;entryY=0;entryDx=0;entryDy=0;fontFamily=宋体-简;" parent="1" source="5ua1pPFVDwQ-sEWEfWyi-21" target="5ua1pPFVDwQ-sEWEfWyi-16" edge="1">
          <mxGeometry width="50" height="50" relative="1" as="geometry">
            <mxPoint x="214" y="90" as="sourcePoint" />
            <mxPoint x="346" y="109" as="targetPoint" />
          </mxGeometry>
        </mxCell>
        <mxCell id="5ua1pPFVDwQ-sEWEfWyi-27" value="" style="endArrow=none;html=1;rounded=0;exitX=0.5;exitY=1;exitDx=0;exitDy=0;entryX=0.75;entryY=0;entryDx=0;entryDy=0;fontFamily=宋体-简;" parent="1" source="5ua1pPFVDwQ-sEWEfWyi-23" target="5ua1pPFVDwQ-sEWEfWyi-16" edge="1">
          <mxGeometry width="50" height="50" relative="1" as="geometry">
            <mxPoint x="234" y="110" as="sourcePoint" />
            <mxPoint x="366" y="129" as="targetPoint" />
          </mxGeometry>
        </mxCell>
        <mxCell id="5ua1pPFVDwQ-sEWEfWyi-28" value="使用" style="rhombus;whiteSpace=wrap;html=1;fontFamily=宋体-简;" parent="1" vertex="1">
          <mxGeometry x="210" y="90" width="80" height="40" as="geometry" />
        </mxCell>
        <mxCell id="5ua1pPFVDwQ-sEWEfWyi-29" value="" style="endArrow=none;html=1;rounded=0;exitX=1;exitY=0.5;exitDx=0;exitDy=0;entryX=0;entryY=0.5;entryDx=0;entryDy=0;fontFamily=宋体-简;" parent="1" source="5ua1pPFVDwQ-sEWEfWyi-28" target="5ua1pPFVDwQ-sEWEfWyi-16" edge="1">
          <mxGeometry width="50" height="50" relative="1" as="geometry">
            <mxPoint x="250" y="130" as="sourcePoint" />
            <mxPoint x="290" y="130" as="targetPoint" />
          </mxGeometry>
        </mxCell>
        <mxCell id="5ua1pPFVDwQ-sEWEfWyi-30" value="n" style="edgeLabel;html=1;align=center;verticalAlign=middle;resizable=0;points=[];fontFamily=宋体-简;" parent="5ua1pPFVDwQ-sEWEfWyi-29" vertex="1" connectable="0">
          <mxGeometry relative="1" as="geometry">
            <mxPoint as="offset" />
          </mxGeometry>
        </mxCell>
        <mxCell id="5ua1pPFVDwQ-sEWEfWyi-31" value="教师工号" style="ellipse;whiteSpace=wrap;html=1;fontFamily=宋体-简;" parent="1" vertex="1">
          <mxGeometry x="610" y="180" width="60" height="30" as="geometry" />
        </mxCell>
        <mxCell id="5ua1pPFVDwQ-sEWEfWyi-32" value="" style="endArrow=none;html=1;rounded=0;exitX=0.5;exitY=0;exitDx=0;exitDy=0;fontFamily=宋体-简;entryX=1;entryY=0.5;entryDx=0;entryDy=0;" parent="1" source="5ua1pPFVDwQ-sEWEfWyi-31" target="p91Yb7fb0jG22XeW4vL_-1" edge="1">
          <mxGeometry width="50" height="50" relative="1" as="geometry">
            <mxPoint x="564" y="210" as="sourcePoint" />
            <mxPoint x="650" y="160" as="targetPoint" />
          </mxGeometry>
        </mxCell>
      </root>
    </mxGraphModel>
  </diagram>
</mxfile>
